# xmcd CD database file
#
# Track frame offsets:
#	150
#	21541
#	36069
#	55316
#	80227
#	103322
#	127234
#	148423
#	166910
#
# Disc length: 2589 seconds
#
# Revision: 0
# Processed by: cddbd v1.5.1PL0 Copyright (c) Steve Scherf et al.
# Submitted via: CDex 1.51
#
DISCID=8c0a1b09
DTITLE=Reginald Policard - Tradition
DYEAR=1900
DGENRE=Jazz
TTITLE0=Haiti
TTITLE1=Carte Blanche
TTITLE2=Panamam Tonbe
TTITLE3=Cousin
TTITLE4=Minis Azaka
TTITLE5=Yoyo
TTITLE6=Trois Bébées
TTITLE7=Nibo
TTITLE8=Latibonit
EXTD=
EXTT0=
EXTT1=
EXTT2=
EXTT3=
EXTT4=
EXTT5=
EXTT6=
EXTT7=
EXTT8=
PLAYORDER=
